<svg width="164" height="50" viewBox="0 0 164 50" fill="none" xmlns="http://www.w3.org/2000/svg">
<path d="M5.29333 49.375C2.96267 49.375 1 47.375 1 45V5C1 2.625 2.96267 0.625 5.29333 0.625H159.48C161.811 0.625 163.773 2.625 163.773 5V45C163.773 47.375 161.811 49.375 159.48 49.375H5.29333Z" fill="black"/>
<path d="M159.093 1.25C161.179 1.25 162.773 2.875 162.773 5V45C162.773 47.125 161.179 48.75 159.093 48.75H4.90667C2.82133 48.75 1.22667 47.125 1.22667 45V5C1.22667 2.875 2.82133 1.25 4.90667 1.25H159.093ZM159.093 0H4.90667C2.208 0 0 2.25 0 5V45C0 47.75 2.208 50 4.90667 50H159.093C161.792 50 164 47.75 164 45V5C164 2.25 161.792 0 159.093 0Z" fill="#A6A6A6"/>
<path d="M84.2536 16C81.6776 16 79.715 18.125 79.715 20.625C79.715 23.25 81.8003 25.25 84.2536 25.25C86.8296 25.25 88.7923 23.125 88.7923 20.625C88.915 18.125 86.8296 16 84.3763 16C84.2536 16 84.2536 16 84.2536 16ZM84.2536 23.5C82.7816 23.375 81.6776 22.25 81.6776 20.75V20.625C81.555 19.25 82.659 17.875 84.0083 17.875C85.3576 17.75 86.707 18.875 86.707 20.25C86.707 20.375 86.707 20.5 86.707 20.625C86.8296 22.25 85.7256 23.375 84.2536 23.5ZM74.195 16C71.619 16 69.6563 18.125 69.6563 20.625C69.779 23.25 71.7416 25.25 74.195 25.25C76.771 25.25 78.7336 23.125 78.7336 20.625C78.8563 18.125 76.771 16 74.3176 16C74.195 16 74.195 16 74.195 16ZM74.195 23.5C72.723 23.375 71.619 22.25 71.619 20.75V20.625C71.4963 19.25 72.6003 17.875 73.9496 17.875C75.299 17.75 76.6483 18.875 76.6483 20.25C76.6483 20.375 76.6483 20.5 76.6483 20.625C76.8936 22.25 75.667 23.375 74.195 23.5ZM62.2963 17.5V19.5H66.9576C66.835 20.5 66.5896 21.375 65.8536 22C64.8723 23 63.6456 23.5 62.2963 23.375C59.475 23.25 57.267 20.75 57.3896 17.875C57.5123 15.125 59.5976 13 62.2963 12.875C63.6456 12.875 64.8723 13.375 65.8536 14.25L67.203 12.875C65.8536 11.625 64.1363 10.875 62.2963 10.875C58.371 10.875 55.1816 14 55.1816 18C55.3043 22 58.4936 25.25 62.2963 25.25C64.1363 25.375 65.9763 24.625 67.203 23.25C68.307 22 68.9203 20.375 68.9203 18.625C68.9203 18.25 68.9203 17.875 68.7976 17.375L62.2963 17.5ZM110.872 19C110.382 17.25 108.787 16.125 106.947 16C104.616 16 102.654 18 102.654 20.5C102.654 20.625 102.654 20.625 102.654 20.75C102.531 23.25 104.616 25.375 107.07 25.375C107.192 25.375 107.192 25.375 107.192 25.375C108.664 25.375 110.136 24.625 110.995 23.25L109.523 22.125C109.032 22.875 108.174 23.375 107.315 23.375C106.334 23.5 105.475 22.875 105.107 22L111.24 19.5L110.872 19ZM104.739 20.5C104.616 19.125 105.598 17.875 106.947 17.75C107.07 17.75 107.07 17.75 107.07 17.75C107.806 17.625 108.419 18.125 108.787 18.75L104.739 20.5ZM99.8323 25H101.795V11.375H99.8323V25ZM96.5203 17C95.907 16.375 94.9256 15.875 93.9443 16C91.3683 16 89.4056 18.125 89.4056 20.625C89.4056 23.125 91.491 25.25 93.9443 25.25C94.9256 25.375 95.7843 24.875 96.3976 24.125H96.5203V25C96.7657 26.25 95.907 27.5 94.5576 27.75C94.435 27.75 94.1897 27.75 94.067 27.75C92.963 27.75 92.1043 27.125 91.7363 26L90.019 26.75C90.6323 28.5 92.227 29.5 94.067 29.5C96.3977 29.5 98.3603 28.125 98.3603 24.625V16.25H96.3976L96.5203 17ZM94.1896 23.5C92.7176 23.375 91.6137 22.25 91.6137 20.75C91.6137 20.75 91.6137 20.75 91.6137 20.625C91.491 19.125 92.7176 17.875 94.1896 17.75C95.539 17.875 96.7656 19 96.643 20.5V20.625C96.7656 22 95.6616 23.375 94.3123 23.375C94.3123 23.5 94.1896 23.5 94.1896 23.5ZM120.318 11.375H115.534V25H117.496V19.75H120.318C122.648 19.875 124.611 18 124.734 15.5V15.375C124.734 13.25 122.771 11.25 120.318 11.375C120.44 11.375 120.318 11.375 120.318 11.375ZM120.318 17.875H117.496V13.25H120.318C121.544 13.125 122.648 14.125 122.771 15.375C122.894 16.625 121.912 17.75 120.686 17.875C120.563 17.875 120.563 17.875 120.318 17.875ZM132.707 16C131.235 15.875 129.763 16.75 129.15 18.125L130.99 18.875C131.603 17.875 132.952 17.625 133.934 18.25C134.424 18.625 134.67 19 134.915 19.625V19.75C134.302 19.375 133.566 19.25 132.83 19.25C130.867 19.25 129.027 20.375 129.027 22.375C129.15 24.125 130.499 25.5 132.216 25.375C132.339 25.375 132.339 25.375 132.339 25.375C133.443 25.5 134.424 25 135.038 24V25H137V19.75C136.878 17.375 135.038 16 132.707 16ZM132.462 23.5C131.848 23.5 130.867 23.125 130.867 22.375C130.867 21.25 131.971 20.875 132.952 20.875C133.566 20.75 134.179 21 134.792 21.25C134.792 22.5 133.688 23.375 132.462 23.5ZM143.87 16.25L141.539 22.25L139.086 16.25H137L140.558 24.5L138.595 29.125H140.68L146.078 16.25H143.87ZM125.838 25H127.8V11.375H125.838V25Z" fill="white"/>
<path d="M17.5226 9.375C17.1546 9.875 16.9092 10.5 17.0319 11.125V38.75C16.9092 39.375 17.1546 40 17.6452 40.5L17.7679 40.625L32.9786 25.125V24.75L17.6452 9.375H17.5226Z" fill="url(#paint0_linear)"/>
<path d="M37.8848 30.375L32.8555 25.25V24.875L37.8848 19.75L38.0075 19.875L44.0181 23.375C45.7355 24.375 45.7355 26 44.0181 27L38.0075 30.5L37.8848 30.375Z" fill="url(#paint1_linear)"/>
<path d="M38.0078 30.25L32.8558 25L17.5225 40.625C18.2585 41.25 19.3625 41.25 20.0985 40.75L38.0078 30.25Z" fill="url(#paint2_linear)"/>
<path d="M38.0078 19.75L20.0985 9.375C19.3625 8.75 18.2585 8.75 17.5225 9.375L32.8558 25L38.0078 19.75Z" fill="url(#paint3_linear)"/>
<path opacity="0.2" d="M37.8851 30.125L20.0985 40.5C19.3625 41 18.3811 41 17.6451 40.5L17.5225 40.625L17.6451 40.75C18.3811 41.25 19.3625 41.25 20.0985 40.75L37.8851 30.125Z" fill="black"/>
<path opacity="0.12" d="M17.5226 40.5C17.1546 40 16.9092 39.375 17.0319 38.75V39C16.9092 39.625 17.1546 40.25 17.6452 40.75L17.7679 40.625L17.5226 40.5Z" fill="black"/>
<path opacity="0.12" d="M44.0181 26.625L37.8848 30.125L38.0074 30.25L44.0181 26.75C44.7541 26.375 45.2448 25.75 45.3674 24.875C45.1221 25.75 44.6314 26.375 44.0181 26.625Z" fill="black"/>
<path opacity="0.25" d="M20.0982 9.49927L44.0182 23.3743C44.6316 23.6243 45.1222 24.2493 45.3676 24.9993C45.2449 24.2493 44.7542 23.4993 44.0182 23.1243L20.0982 9.37427C18.3809 8.37427 17.0316 9.12427 17.0316 11.2493V11.4993C16.9089 9.37427 18.3809 8.49927 20.0982 9.49927Z" fill="white"/>
<path d="M56.0403 33.875C56.7763 33.75 58.8616 33.625 60.8243 33.375C62.051 33.25 63.0323 33.25 63.7683 33.125V34C63.0323 34 62.2963 34 61.683 34.25C60.211 34.75 59.3523 36.25 59.2296 37.75C59.2296 39.875 61.1923 40.625 63.0323 40.625L62.6643 41.625C60.579 41.5 58.371 40.375 58.371 38C58.371 36.5 59.107 35.125 60.4563 34.25C59.475 34.375 56.531 34.625 55.3043 34.875L55.1816 33.75C55.427 33.875 55.795 33.875 56.0403 33.875ZM63.155 37L62.5416 37.25C62.2963 36.75 62.051 36.125 61.5603 35.75L62.1736 35.5C62.5416 35.875 62.9096 36.5 63.155 37ZM64.3816 36.5L63.7683 36.75C63.523 36.25 63.155 35.625 62.787 35.25L63.2776 35C63.7683 35.5 64.1363 36 64.3816 36.5Z" fill="white" stroke="white" stroke-width="0.2" stroke-miterlimit="10"/>
<path d="M75.4208 38.5H70.8821V41C70.8821 41.625 70.6368 41.875 70.2688 42C69.5328 42.125 68.7968 42.25 68.0608 42.125C67.9381 41.875 67.8154 41.625 67.6928 41.375C68.6741 41.375 69.5328 41.375 69.7781 41.375C70.0234 41.375 70.1461 41.25 70.1461 41V38.5H65.6074V37.75H70.1461V35.875H66.3434V35H70.1461V33.25C68.9194 33.375 67.6928 33.5 66.5888 33.5C66.4661 33.25 66.4661 33 66.3434 32.75C68.9194 32.625 71.3728 32.375 73.8261 31.75L74.4394 32.375C73.3354 32.75 72.2314 32.875 71.0048 33V35H74.9301V35.75H71.0048V37.625H75.5434L75.4208 38.5Z" fill="white" stroke="white" stroke-width="0.2" stroke-miterlimit="10"/>
<path d="M78.7337 32.875C78.7337 33.125 78.6111 33.375 78.4884 33.625C78.2431 35 77.9977 36.5 77.9977 37.875C77.9977 38.375 77.9977 38.875 78.1204 39.375C78.3657 38.875 78.4884 38.25 78.7337 37.75L79.2244 38.125C78.9791 38.875 78.6111 40.125 78.4884 40.625C78.4884 40.75 78.4884 41 78.4884 41.125V41.5H77.7524C77.3844 40.375 77.2617 39.25 77.2617 38C77.3844 36.5 77.5071 35 77.7524 33.5C77.7524 33.25 77.8751 33 77.8751 32.75L78.7337 32.875ZM81.1871 38.25C81.0644 38.625 81.0644 38.875 81.0644 39.25C81.0644 39.75 81.4324 40.25 82.9044 40.25C83.8857 40.375 84.7444 40.125 85.7257 40V41C84.7444 41.125 83.8857 41.25 83.0271 41.25C81.1871 41.25 80.3284 40.625 80.3284 39.5C80.3284 39 80.4511 38.625 80.5737 38.125L81.1871 38.25ZM80.8191 33.75C82.2911 34 83.7631 34 85.3577 33.75V34.75C83.8857 34.875 82.4137 34.875 80.8191 34.75V33.75Z" fill="white" stroke="white" stroke-width="0.2" stroke-miterlimit="10"/>
<path d="M92.7169 32.5C92.4715 36.125 94.1889 39.5 97.2555 41.375C97.0102 41.625 96.7649 41.75 96.6422 42C94.4342 40.625 92.8396 38.375 92.2262 35.75C91.6129 38.375 90.0182 40.625 87.8102 42C87.5649 41.75 87.3196 41.5 87.0742 41.375C89.5275 40.125 90.8769 37.75 91.6129 34.625L92.1035 34.75C91.9809 34.25 91.9809 33.75 91.8582 33.375H89.1596V32.5H92.7169Z" fill="white" stroke="white" stroke-width="0.2" stroke-miterlimit="10"/>
<path d="M108.051 40.375C107.56 40.875 106.824 41.25 106.088 41.375C105.352 41.375 104.862 40.875 104.862 40C104.862 38.75 105.23 36.875 105.23 35.875C105.23 35.25 104.862 34.875 104.371 34.875C103.144 35.25 102.04 36 101.182 37C101.182 37.5 101.182 38 101.182 38.25C101.182 39.25 101.182 40 101.182 41C101.182 41.25 101.182 41.5 101.182 41.625H100.2C100.2 41.5 100.2 41.125 100.2 41C100.2 39.875 100.2 39.375 100.2 38.125C100.2 38 100.2 37.875 100.2 37.75C99.7095 38.5 98.9735 39.625 98.3602 40.375L97.9922 39.625C98.6055 38.875 99.8322 37.125 100.446 36.25C100.446 35.875 100.446 35.5 100.446 35.125L98.3602 35.375L98.2375 34.375C98.4829 34.375 98.7282 34.375 98.9735 34.375C99.3415 34.375 99.9549 34.25 100.446 34.125C100.446 33.625 100.446 33.125 100.446 33C100.446 32.75 100.446 32.5 100.446 32.25H101.55C101.55 32.5 101.427 33.125 101.304 34L101.672 34.375C101.55 34.625 101.304 34.875 101.182 35.125C100.936 35.375 101.182 35.5 101.182 35.75C102.04 34.75 103.267 34.125 104.616 33.875C105.352 33.75 106.088 34.25 106.088 35.125C106.088 35.25 106.088 35.375 106.088 35.5C106.088 36.625 105.72 38.5 105.72 39.75C105.72 40.125 105.966 40.375 106.334 40.375C106.947 40.25 107.56 40 108.051 39.375V40.375Z" fill="white" stroke="white" stroke-width="0.2" stroke-miterlimit="10"/>
<path d="M114.184 35.625C114.184 36.375 114.184 37.5 114.306 38.375C115.533 38.75 116.637 39.375 117.741 40.25L117.25 41C116.514 40.25 115.41 39.625 114.429 39.125C114.429 39.375 114.429 39.625 114.429 39.875C114.429 40.875 113.938 41.625 112.466 41.625C110.994 41.625 109.768 41.25 109.768 40C109.768 39 110.626 38.125 112.589 38.125C112.957 38.125 113.202 38.125 113.57 38.25C113.57 37.375 113.448 36.375 113.448 35.625C113.448 35 113.448 34.125 113.448 33.625C113.448 33.25 113.325 32.875 113.325 32.5H114.429C114.429 32.75 114.306 33.25 114.306 33.625C114.306 34 114.306 34.25 114.306 34.75C115.165 34.75 116.514 34.625 117.618 34.5V35.375C116.514 35.5 115.042 35.625 114.184 35.625ZM113.448 39C113.08 38.875 112.712 38.875 112.344 38.875C111.24 38.875 110.504 39.25 110.504 39.875C110.504 40.5 111.117 40.875 112.221 40.875C112.957 40.875 113.448 40.5 113.448 39.75C113.448 39.625 113.448 39.375 113.448 39Z" fill="white" stroke="white" stroke-width="0.2" stroke-miterlimit="10"/>
<path d="M124.365 35.875C123.384 36 122.402 36.125 121.421 36.5C121.053 36.625 120.808 36.75 120.44 36.875L120.194 35.875C120.44 35.875 120.808 35.75 121.176 35.75C122.28 35.375 123.384 35.25 124.488 35.125C125.837 35 127.064 35.875 127.186 37.375C127.186 37.5 127.186 37.625 127.186 37.625C127.186 40 125.101 41.375 122.28 41.875L121.789 41C124.488 40.625 126.328 39.625 126.328 37.625C126.205 36.625 125.592 36 124.61 36C124.488 35.875 124.365 35.875 124.365 35.875ZM126.328 33L126.205 33.875C124.978 33.75 122.77 33.625 121.544 33.375L121.666 32.625C123.138 32.875 124.733 33 126.328 33Z" fill="white" stroke="white" stroke-width="0.2" stroke-miterlimit="10"/>
<defs>
<linearGradient id="paint0_linear" x1="31.4412" y1="10.8791" x2="10.4415" y2="31.4868" gradientUnits="userSpaceOnUse">
<stop stop-color="#00A0FF"/>
<stop offset="0.01" stop-color="#00A1FF"/>
<stop offset="0.26" stop-color="#00BEFF"/>
<stop offset="0.51" stop-color="#00D2FF"/>
<stop offset="0.76" stop-color="#00DFFF"/>
<stop offset="1" stop-color="#00E3FF"/>
</linearGradient>
<linearGradient id="paint1_linear" x1="46.2402" y1="25.0339" x2="16.5271" y2="25.0339" gradientUnits="userSpaceOnUse">
<stop stop-color="#FFE000"/>
<stop offset="0.41" stop-color="#FFBD00"/>
<stop offset="0.78" stop-color="#FFA500"/>
<stop offset="1" stop-color="#FF9C00"/>
</linearGradient>
<linearGradient id="paint2_linear" x1="35.1804" y1="27.9074" x2="6.69724" y2="55.8468" gradientUnits="userSpaceOnUse">
<stop stop-color="#FF3A44"/>
<stop offset="1" stop-color="#C31162"/>
</linearGradient>
<linearGradient id="paint3_linear" x1="13.654" y1="0.224375" x2="26.369" y2="12.7019" gradientUnits="userSpaceOnUse">
<stop stop-color="#32A071"/>
<stop offset="0.07" stop-color="#2DA771"/>
<stop offset="0.48" stop-color="#15CF74"/>
<stop offset="0.8" stop-color="#06E775"/>
<stop offset="1" stop-color="#00F076"/>
</linearGradient>
</defs>
</svg>
