<svg width="238" height="348" viewBox="0 0 238 348" fill="none" xmlns="http://www.w3.org/2000/svg">
<g clip-path="url(#clip0_1211_391)">
<path d="M232.93 20.7188L198.331 27.6096L203.407 53.1585L238.005 46.2677L232.93 20.7188Z" fill="white"/>
<path d="M23.3674 122.043C16.8058 135.392 10.3468 149.02 7.5089 163.634C7.0988 165.687 6.78302 167.74 6.07766 169.732C5.31898 171.859 4.142 173.805 3.17007 175.85C1.4002 179.59 0.343179 183.629 0.0533258 187.758C-0.0656025 189.511 -0.0327909 191.342 0.72999 192.923C1.49277 194.504 3.16597 195.756 4.90478 195.539C5.80166 195.369 6.64517 194.987 7.36536 194.426C9.8476 192.683 11.9422 190.445 13.5169 187.851C15.0917 185.257 16.1124 182.365 16.5146 179.356L19.4919 183.902C19.8405 184.432 20.2383 185.002 20.8453 185.183C22.3749 185.631 23.2566 183.458 23.2279 181.865C23.1403 177.4 21.7692 173.055 19.2787 169.35C18.5569 168.278 17.7203 167.219 17.4538 165.954C17.1462 164.484 17.6547 162.973 18.1837 161.569C24.003 146.097 33.2343 132.189 42.3795 118.429C45.1189 114.323 47.8666 110.18 51.0325 106.378C53.9032 102.933 57.1635 99.6602 58.8039 95.4883C60.4443 91.3165 59.9193 85.8471 56.2244 83.3095C52.1972 80.5461 46.4476 82.5827 43.0397 86.0853C39.0741 90.1709 36.6053 95.6362 34.0914 100.683C30.5482 107.811 26.8942 114.89 23.3674 122.043Z" fill="#B76C29"/>
<path d="M193.874 61.5963C194.546 61.2089 195.131 60.686 195.592 60.0606C196.002 59.3913 196.145 58.5783 196.379 57.8187C197.273 54.9115 199.754 52.7065 202.531 51.4377C205.307 50.1689 208.342 49.7008 211.348 49.2532C212.439 49.089 213.644 48.9494 214.571 49.5489C216.019 50.481 215.929 52.7763 214.846 54.1149C213.763 55.4535 212.049 56.0653 210.421 56.6238C211.216 57.4797 211.758 58.5402 211.985 59.6867C212.212 60.8332 212.117 62.0204 211.709 63.1156C211.229 64.3474 210.364 65.4068 210.023 66.6797C209.843 67.3572 209.822 68.0676 209.654 68.7533C209.15 70.831 207.325 72.3996 205.307 73.1058C203.289 73.8121 201.095 73.7875 198.967 73.6068C197.757 73.5041 196.506 73.3604 195.354 73.7259C194.696 73.9682 194.068 74.2865 193.484 74.6744C182.867 81.121 170.9 85.9211 158.486 86.0813C155.493 86.1182 152.499 85.8883 149.505 85.8267C143.669 85.7117 137.674 86.2373 132.142 84.3649C130.382 83.7777 128.648 82.9113 127.471 81.4906C125.67 79.3061 125.498 76.0171 126.786 73.4959C128.073 70.9748 130.649 69.2379 133.417 68.6466C134.923 68.3774 136.452 68.2618 137.981 68.3017C145.166 68.2442 151.629 70.3876 158.679 70.8351C166.617 71.3247 174.571 70.1874 182.055 67.4927C186.21 65.9949 190.177 64.016 193.874 61.5963Z" fill="#FF9D3B"/>
<path d="M23.5683 343.126C38.0972 343.796 52.652 343.659 67.1657 342.716C67.1083 337.759 63.7455 333.538 59.866 331.629C55.9865 329.72 51.6641 329.621 47.4483 329.576C64.2388 271.407 76.3535 211.986 83.6763 151.882C83.2662 155.36 54.6865 147.058 52.3776 146.335C50.0073 156.477 49.589 166.915 47.6656 177.131C46.2385 184.73 44.8523 192.343 43.5072 199.969C38.1349 230.464 33.4653 261.124 29.4983 291.947C28.9447 296.189 23.8472 343.138 23.5683 343.126Z" fill="#002163"/>
<path d="M139.142 322.513C139.396 323.698 139.83 324.836 140.43 325.889C142.07 328.414 145.125 328.714 147.656 329.806C152.962 332.093 156.526 338.995 155.812 345.59C142.371 345.533 128.941 346.338 115.602 348C106.806 300.032 92.4811 253.748 78.1974 207.644C75.3882 198.577 72.8456 189.4 70.1717 180.28C67.7399 171.998 62.6465 161.712 62.0846 153.27C67.1944 151.291 72.7267 150.33 78.0005 148.979C83.381 147.6 88.7779 146.216 94.2691 145.723C95.7372 153.205 99.1902 159.388 100.831 166.664C102.471 173.941 104.087 181.143 105.752 188.374C112.335 217.021 119.241 245.563 126.47 273.999C130.587 290.21 134.811 306.382 139.142 322.513Z" fill="#253982"/>
<path d="M57.2414 65.7477C49.0394 69.5377 42.2769 76.3169 36.9006 83.9995C31.5242 91.6821 27.4355 100.297 23.3673 108.862C26.7465 112.521 31.1592 114.812 35.4775 117.038L51.8076 125.447C53.6079 114.771 57.0076 104.485 60.5755 94.3552C62.343 89.3334 64.1597 84.3321 65.8616 79.2816C66.731 76.6906 67.5758 74.0914 68.3632 71.4799C68.8553 69.8374 71.0412 65.1359 70.5818 63.5509C69.4828 59.7486 59.1606 64.8608 57.2414 65.7477Z" fill="#BFBFBF"/>
<path d="M72.132 55.3263C72.7654 53.2588 73.1024 51.1118 73.1327 48.9494C73.0917 46.0341 72.1731 43.246 71.6645 40.3963C71.1847 37.7068 71.5866 36.1834 72.3207 33.691C73.9857 28.045 75.7778 23.093 80.1946 18.9335C83.0938 16.2387 86.5484 14.2139 90.3147 13.0021C94.0809 11.7903 98.0669 11.4209 101.991 11.9202C103.78 12.1382 105.531 12.5996 107.195 13.2917C112.551 15.5747 118.063 21.6189 116.451 27.6016C114.116 36.1833 111.159 44.5834 107.605 52.7353C105.264 58.1349 96.9429 52.8051 93.412 52.8544C91.6988 57.5237 90.3898 62.3319 89.4997 67.2259C89.0281 69.8333 88.6795 72.4982 87.5558 74.9003C87.5208 75.011 87.4635 75.1134 87.3873 75.201C87.3111 75.2886 87.2177 75.3596 87.1129 75.4094C86.8934 75.4471 86.6677 75.4001 86.4813 75.278C83.5245 73.8162 80.7031 73.2824 77.6232 72.2148C76.7251 71.9069 68.5355 67.2875 68.6667 66.844C69.5935 63.7808 70.519 60.719 71.4431 57.6586C71.6809 56.8743 71.9147 56.1105 72.132 55.3263Z" fill="#FF9D3B"/>
<path d="M102.188 32.4099C102.266 32.1142 99.707 28.8252 99.2928 28.3489C98.7306 27.753 97.9984 27.3453 97.1962 27.1814C96.394 27.0175 95.5608 27.1055 94.8104 27.4332C91.3533 29.0346 91.2344 33.1038 93.17 35.8591C93.7032 36.6146 94.3347 37.3783 94.4003 38.2981C94.4093 38.9008 94.2683 39.4963 93.9902 40.0309C91.7798 44.8597 86.6085 47.6191 83.623 52.0126C80.1759 51.2869 76.6633 50.9195 73.1409 50.9163C72.1474 45.2955 71.7774 39.582 72.0377 33.8799C72.2592 28.9525 73.3746 24.1976 77.2624 20.8675C83.3236 15.6814 91.6773 12.9755 99.6209 14.1047C103.414 14.6426 105.547 14.9013 105.858 18.5434C106.207 22.4073 103.16 28.5953 102.188 32.4099Z" fill="#2E4B97"/>
<path d="M118.063 16.5231C117.152 13.8131 115.266 11.5259 113.109 9.65353C108.352 5.52275 102.295 2.79627 95.9341 2.67309C89.1537 2.51886 82.5436 4.80807 77.3074 9.12384C73.4033 12.3431 71.8449 16.3712 71.8121 21.4423C71.7875 25.0639 72.4232 28.6527 72.5954 32.2661C72.5585 31.4449 76.1633 28.5706 76.8686 28.0573C78.477 26.8991 80.1457 25.8272 81.8677 24.8463C85.5834 22.6901 89.6296 21.164 93.8426 20.3295C102.098 18.7199 111.017 20.194 117.247 26.1931C118.35 22.9985 119.166 19.8204 118.063 16.5231Z" fill="#002163"/>
<path d="M71.7178 3.82275C70.4465 2.43898 69.0235 1.1168 67.2765 0.431073C65.5295 -0.254654 63.3765 -0.180738 61.9452 1.03879C60.0342 2.68125 60.0342 5.68284 60.9446 8.01923C61.9165 10.5322 63.9875 12.8316 66.6613 13.1642C64.6765 16.2315 61.3301 18.0916 58.1108 19.8244C60.5317 19.66 62.9078 19.0895 65.1399 18.1368C64.0723 19.9856 62.5098 21.4989 60.6288 22.5057C62.6227 22.1217 64.527 21.3668 66.243 20.2802C65.5478 21.7302 64.6273 23.0607 63.5159 24.2221C67.2242 22.4615 70.5046 19.9126 73.1286 16.753C74.1292 15.5499 75.0437 14.2236 75.4292 12.7043C76.192 9.70686 73.6699 5.95795 71.7178 3.82275Z" fill="#002163"/>
<path d="M43.2735 161.688C42.765 153.432 42.3808 145.17 42.1211 136.903C41.8463 128.28 41.6331 119.768 41.1902 111.141C40.7473 102.514 40.8949 93.5833 43.9337 85.2725C45.7489 80.3233 48.5307 75.7859 52.1169 71.9253C55.703 68.0646 60.0214 64.9581 64.82 62.7872C75.7532 57.9296 88.5646 58.213 100.732 59.0917C107.381 59.568 114.015 60.188 120.634 60.9518C124.013 61.3432 127.389 61.7716 130.76 62.237C133.524 62.6189 136.181 63.4688 138.961 63.7275C139.117 74.9729 139.275 86.2183 139.433 97.4636C139.454 97.6026 139.444 97.7444 139.404 97.8791C139.365 98.0139 139.296 98.1383 139.203 98.2438C138.985 98.3929 138.725 98.4678 138.461 98.4573C125.981 99.3278 113.504 100.112 101.032 100.81C100.777 110.221 101.384 119.752 101.479 129.216C101.507 131.779 102.541 158.908 101.786 159.019C83.6889 162.767 65.2677 164.725 46.788 164.866C45.935 164.866 45.0123 164.866 44.3274 164.386C43.4621 163.782 43.335 162.673 43.2735 161.688Z" fill="white"/>
<path d="M201.76 29.3631L220.214 36.3436L230.467 23.6145L221.034 39.2179L201.76 29.3631Z" fill="#CCCCCC"/>
</g>
<defs>
<clipPath id="clip0_1211_391">
<rect width="238" height="348" fill="white"/>
</clipPath>
</defs>
</svg>
