<svg width="179" height="353" viewBox="0 0 179 353" fill="none" xmlns="http://www.w3.org/2000/svg">
<g clip-path="url(#clip0_1211_404)">
<path d="M78.0412 27.4089C84.8239 25.1181 92.5762 23.4609 99.5863 25.2576C106.118 26.9308 110.57 31.3648 112.466 36.0458C114.169 40.2408 114.241 45.2086 117.995 48.8857C122.217 52.9971 129.362 52.766 135.678 54.24C140.466 55.3635 145.33 57.945 145.45 61.4826C145.577 65.1358 140.602 68.4026 141.759 71.9641C142.489 74.207 145.501 75.7448 148.59 76.5296C151.678 77.3144 155.005 77.5614 158.085 78.3661C166.492 80.5692 171.918 87.3099 170.242 93.4768C168.922 98.3491 163.823 102.536 163.408 107.484C162.773 115.081 172.983 120.774 177.065 127.837C182.846 137.861 174.99 149.749 162.646 156.242C150.301 162.736 134.533 165.007 119.26 166.672C104.661 168.265 89.8631 169.425 75.1326 168.632C67.7714 168.234 60.4779 167.345 53.2563 166.274C48.1254 165.509 42.9626 164.636 38.3064 162.951C23.145 157.469 16.5299 142.845 24.3779 132.275C26.3728 129.566 29.2016 127.096 30.3427 124.152C30.8198 122.901 30.9802 121.552 30.8097 120.224C30.6392 118.895 30.143 117.63 29.3652 116.539C28.0526 114.603 25.93 112.93 25.1001 110.87C23.3366 106.488 27.893 102.154 32.5291 98.9706C37.1653 95.7875 42.6194 92.461 43.2698 87.9313C44.0278 82.6289 37.7997 77.5016 39.6789 72.3386C41.61 67.06 51.2255 64.3032 52.3985 58.9131C53.001 56.1483 52.1192 52.8975 54.6009 50.4872C57.693 47.4834 61.252 46.3361 62.8599 42.3761C64.2444 38.958 64.8548 35.2411 67.9509 32.4165C70.2012 30.3489 73.5367 29.0024 76.8402 27.8311L78.0412 27.4089Z" fill="#002163"/>
<path d="M26.3688 88.254C21.134 77.2958 16.5432 66.0423 12.6199 54.5507C12.1411 53.1524 11.6264 51.6784 10.5012 50.7183C9.37612 49.7582 7.42509 49.5988 6.54334 50.786C6.16331 51.3912 5.97297 52.0959 5.99673 52.8098C5.98071 54.8443 6.19349 56.8741 6.6311 58.8612C8.97205 71.3645 12.6643 83.5773 17.6431 95.2855C17.8434 95.8981 18.201 96.4475 18.6804 96.879C19.1415 97.1798 19.6657 97.3706 20.2125 97.4367C25.4541 98.4712 30.7895 98.9558 36.132 98.8829C37.8396 98.859 39.5991 98.7673 41.1352 98.0224C42.6713 97.2774 43.9281 95.7277 43.8323 94.0385C43.7446 92.5884 42.6833 91.3335 41.4065 90.6443C39.4116 89.5687 37.3768 89.8714 35.2462 89.6444C32.2778 89.3097 29.3173 88.7121 26.3688 88.254Z" fill="#FF9D3B"/>
<path d="M37.9952 85.4652C37.8769 93.7529 38.7598 102.025 40.6245 110.101C47.7858 108.354 55.1215 107.418 62.4928 107.313C63.3147 102.798 64.0209 98.252 64.6114 93.6759C64.8947 91.4808 67.0053 83.6287 64.7869 82.4853C62.9676 81.5212 37.9912 85.7481 37.9952 85.4652Z" fill="#C6C6C6"/>
<path d="M127.088 122.674C134.642 114.411 141.028 105.154 146.068 95.1618C142.377 93.4368 140.57 88.7638 142.194 85.1624C143.818 81.561 148.617 79.6049 152.464 80.9793C154.182 81.6521 155.701 82.7486 156.88 84.1664C158.6 86.1304 159.833 88.6482 159.558 91.1939C159.37 92.9428 158.5 94.5483 157.626 96.098C150.389 108.92 142.019 121.071 132.618 132.407C131.701 133.51 130.663 134.677 129.219 134.976C127.775 135.275 126.29 134.61 124.962 133.96C115.258 129.212 105.531 124.447 96.4862 118.639C93.1108 116.467 89.6596 113.934 88.2991 110.272C87.2737 107.484 87.9998 103.436 90.7768 101.763C95.0459 99.1935 98.134 102.815 100.955 105.348C108.575 112.213 118.203 117.196 127.088 122.674Z" fill="#FF9D3B"/>
<path d="M47.3075 339.395C44.2074 340.67 41.0435 341.985 38.5299 344.176C36.0163 346.367 34.1809 349.67 34.6038 352.992C45.2219 350.954 55.6544 348.05 65.7964 344.307C60.4631 329.441 56.0553 314.261 52.598 298.852C51.2694 292.94 50.0804 286.976 49.5179 280.924C48.9154 274.419 49.0431 267.869 49.3104 261.34C50.5552 230.891 54.8084 200.642 59.8475 170.584C59.7957 170.899 42.1766 172.249 40.453 172.656C35.4298 173.851 35.709 177.376 35.2143 181.934C33.8258 194.714 32.8483 207.538 32.4214 220.39C31.5516 246.11 32.8204 271.961 37.1095 297.358C39.4857 311.598 42.894 325.648 47.3075 339.395Z" fill="#002163"/>
<path d="M67.3165 264.101C67.7155 265.866 68.1145 267.686 69.2196 269.136C70.0615 270.24 71.2385 271.029 72.4115 271.801L136.648 314.632C130.348 320.448 129.067 330.965 133.831 338.085C141.172 329.899 147.413 320.792 152.396 310.994C152.795 310.198 135.559 297.529 133.899 296.254C127.494 291.274 121.025 286.38 114.492 281.57C107.96 276.76 101.364 272.035 94.7067 267.395C89.2207 263.575 83.9342 261.272 83.1562 254.026C80.3194 227.334 77.4826 200.499 78.8391 173.687C71.4946 172.237 63.9209 172.413 56.6517 174.201C56.3923 181.703 56.7913 189.197 56.9709 196.694C57.314 211.211 59.4565 225.621 62.2095 239.859C63.7656 247.954 65.537 256.021 67.3165 264.101Z" fill="#253982"/>
<path d="M75.4119 81.5332C70.7597 80.7683 66.2792 81.4814 61.5672 82.7921C61.1992 82.8707 60.8479 83.0137 60.5298 83.2144C60.1598 83.5207 59.8674 83.9096 59.676 84.3498C57.3459 88.8754 55.2871 93.664 53.0568 98.2932C50.8265 102.922 48.8356 107.755 47.9499 112.846C46.1983 122.913 46.4895 133.271 45.8711 143.442C45.7035 146.139 45.516 148.936 44.2393 151.318C39.9515 159.333 37.0168 167.998 35.5534 176.966C36.4352 171.512 57.0427 174.289 60.2705 174.576C61.8664 174.715 82.9886 177.703 82.9567 179.082C83.1674 170.627 82.5743 162.171 81.1852 153.828C80.9099 152.191 80.6067 150.533 80.7144 148.876C80.8469 147.481 81.1387 146.106 81.5841 144.777C84.1735 136.06 84.377 128.112 89.3284 120.077C89.0292 120.559 97.5355 128.351 98.3694 129.005C104.953 123.75 110.151 116.452 116.419 110.767C109.808 103.309 102.694 96.0862 94.3955 90.4929C89.4242 87.1425 84.2134 83.9913 78.4362 82.2424C77.4447 81.9399 76.4345 81.703 75.4119 81.5332Z" fill="white"/>
<path d="M93.0709 38.7467C89.9867 37.0416 86.4358 35.8305 82.9606 36.4202C78.1409 37.2408 74.5101 41.3322 72.2958 45.6866C68.5932 52.973 67.8711 62.0601 71.7572 69.2549C72.9142 71.3943 74.4862 73.3663 76.545 74.6451C80.5348 77.0951 85.9051 76.5414 89.851 74.0276C93.797 71.5138 96.4383 67.3228 97.9584 62.9047C101.126 53.7538 102.746 44.093 93.0709 38.7467Z" fill="#FF9D3B"/>
<path d="M73.6643 90.5328C75.4917 92.3654 79.2501 92.1781 81.4605 90.7161C83.6709 89.254 84.6524 86.9394 85.3586 84.7084C86.4777 81.1947 87.148 77.5539 87.3535 73.8724C87.7844 66.088 76.4452 60.6102 74.6977 69.9364C74.1471 72.8685 75.6712 76.0157 75.0688 79.1271C74.4663 82.2385 70.656 87.521 73.6643 90.5328Z" fill="#FF9D3B"/>
<path d="M25.3352 -0.0148865L-0.00900269 23.0928L17.0586 41.7561L42.4028 18.6484L25.3352 -0.0148865Z" fill="white"/>
<path d="M3.7305 22.8234L22.6064 19.3456L24.741 3.62134L24.733 21.3176L3.7305 22.8234Z" fill="#CCCCCC"/>
<path d="M3.92201 43.4836C5.19343 41.9219 6.51273 40.4001 7.87992 38.9181C9.33222 37.3445 10.8843 35.7868 12.8433 34.9343C16.5538 33.277 20.8748 34.4084 24.6771 35.8306C26.2731 36.4282 28.0605 37.3126 28.4236 38.9739C28.7587 40.5196 27.6895 41.9936 26.5962 43.137C23.977 45.8717 20.8634 48.0871 17.4196 49.6665C13.7131 51.3676 11.762 51.6584 9.63545 55.467L7.1458 59.9129C5.48603 56.3753 0.849832 47.2603 3.92201 43.4836Z" fill="#FF9D3B"/>
<path d="M103.201 32.0459C100.807 35.1931 97.0408 37.7627 92.9273 37.6631C90.9323 37.6153 88.9853 37.0575 87.0662 36.4998C88.4067 32.3247 90.0546 29.9304 93.5816 27.4087C96.8014 25.11 100.592 23.7356 104.354 22.6281L109.585 21.0664C107.686 24.8431 105.771 28.6556 103.201 32.0459Z" fill="#FE2A28"/>
<path d="M85.2269 24.4727C82.683 21.2896 79.406 18.7679 75.6752 17.1226C75.6752 21.4012 76.6806 25.7436 78.9908 29.345C80.1199 31.1058 85.9171 37.7987 88.4467 35.6793C91.1239 33.4364 86.6034 26.2655 85.2269 24.4727Z" fill="#FE2F2F"/>
<path d="M104.869 52.9891C105.203 53.2376 105.464 53.5703 105.627 53.9532C106.147 55.1989 106.16 56.5983 105.663 57.8533C105.159 59.0929 104.429 60.2278 103.508 61.1998C103.12 61.6752 102.658 62.0854 102.14 62.4148C101.645 62.6709 101.119 62.8624 100.576 62.9845C99.8975 63.1678 99.1354 63.3431 98.521 62.9845C97.9066 62.626 97.6911 61.9766 97.5714 61.3312C97.1445 59.0963 97.9704 56.5945 99.319 54.7738C100.38 53.3556 103.157 51.8059 104.869 52.9891Z" fill="#FF9D3B"/>
<path d="M73.8917 43.2964C73.8917 43.2964 77.3509 31.9465 87.6766 34.4842C98.0023 37.0219 100.4 40.9221 100.528 51.3199C100.652 51.3637 100.62 41.2288 88.1594 38.727C75.6991 36.2251 73.9635 43.2008 73.8917 43.2964Z" fill="#FF2722"/>
</g>
<defs>
<clipPath id="clip0_1211_404">
<rect width="179" height="353" fill="white"/>
</clipPath>
</defs>
</svg>
