<svg width="63" height="63" viewBox="0 0 63 63" fill="none" xmlns="http://www.w3.org/2000/svg">
<path d="M34.125 22.3125H23.625C18.5509 22.3125 14.4375 18.1991 14.4375 13.125C14.4375 8.05088 18.5509 3.9375 23.625 3.9375H34.125V22.3125Z" fill="#E64A19"/>
<path d="M32.8125 40.6875H23.625C18.5509 40.6875 14.4375 36.5741 14.4375 31.5C14.4375 26.4259 18.5509 22.3125 23.625 22.3125H32.8125V40.6875Z" fill="#7C4DFF"/>
<path d="M23.625 59.0625C18.5509 59.0625 14.4375 54.9491 14.4375 49.875C14.4375 44.8009 18.5509 40.6875 23.625 40.6875H32.8125V49.875C32.8125 54.9491 28.6991 59.0625 23.625 59.0625Z" fill="#66BB6A"/>
<path d="M42 22.3125H32.8125V3.9375H42C47.0741 3.9375 51.1875 8.05088 51.1875 13.125C51.1875 18.1991 47.0741 22.3125 42 22.3125Z" fill="#FF7043"/>
<path d="M42 40.6875C47.0741 40.6875 51.1875 36.5741 51.1875 31.5C51.1875 26.4259 47.0741 22.3125 42 22.3125C36.9259 22.3125 32.8125 26.4259 32.8125 31.5C32.8125 36.5741 36.9259 40.6875 42 40.6875Z" fill="#29B6F6"/>
</svg>
