<svg width="164" height="50" viewBox="0 0 164 50" fill="none" xmlns="http://www.w3.org/2000/svg">
<path d="M4.90662 49.375C2.57595 49.375 0.613281 47.375 0.613281 45V5C0.613281 2.625 2.57595 0.625 4.90662 0.625H159.093C161.424 0.625 163.387 2.625 163.387 5V45C163.387 47.375 161.424 49.375 159.093 49.375H4.90662Z" fill="black"/>
<path d="M159.093 1.25C161.179 1.25 162.773 2.875 162.773 5V45C162.773 47.125 161.179 48.75 159.093 48.75H4.90667C2.82133 48.75 1.22667 47.125 1.22667 45V5C1.22667 2.875 2.82133 1.25 4.90667 1.25H159.093ZM159.093 0H4.90667C2.208 0 0 2.25 0 5V45C0 47.75 2.208 50 4.90667 50H159.093C161.792 50 164 47.75 164 45V5C164 2.25 161.792 0 159.093 0Z" fill="#A6A6A6"/>
<path d="M66.2769 20.75H61.2475L60.0209 24.375H57.9355L62.5969 11.125H64.8049L69.4662 24.375H67.3809L66.2769 20.75ZM61.8609 19H65.7862L63.8235 13.125L61.8609 19Z" fill="white"/>
<path d="M79.7705 19.5C79.7705 22.5 78.1758 24.5 75.8451 24.5C74.6185 24.625 73.3918 23.875 72.9011 22.75V27.5H70.9385V14.625H72.7785V16.25C73.3918 15.125 74.6185 14.5 75.8451 14.5C78.2985 14.5 79.7705 16.5 79.7705 19.5ZM77.8078 19.5C77.8078 17.5 76.8265 16.25 75.3545 16.25C73.8825 16.25 72.9011 17.625 72.9011 19.5C72.9011 21.5 73.8825 22.75 75.3545 22.75C76.8265 22.75 77.8078 21.375 77.8078 19.5Z" fill="white"/>
<path d="M90.3193 19.5C90.3193 22.5 88.7246 24.5 86.394 24.5C85.1673 24.625 83.9406 23.875 83.45 22.75V27.5H81.4873V14.625H83.3273V16.25C83.9406 15.125 85.1673 14.5 86.394 14.5C88.7246 14.5 90.3193 16.5 90.3193 19.5ZM88.234 19.5C88.234 17.5 87.2526 16.25 85.7806 16.25C84.3086 16.25 83.3273 17.625 83.3273 19.5C83.3273 21.5 84.3086 22.75 85.7806 22.75C87.2526 22.75 88.234 21.375 88.234 19.5Z" fill="white"/>
<path d="M97.1891 20.625C97.3117 22 98.5384 22.75 100.256 22.75C101.85 22.75 103.077 21.875 103.077 20.75C103.077 19.75 102.341 19.125 100.624 18.625L98.9064 18.25C96.4531 17.625 95.3491 16.5 95.3491 14.625C95.3491 12.375 97.3117 10.75 100.133 10.75C102.832 10.75 104.794 12.375 104.794 14.625H102.832C102.709 13.25 101.605 12.5 100.01 12.5C98.4157 12.5 97.3117 13.25 97.3117 14.5C97.3117 15.5 98.0477 16 99.6424 16.375L101.114 16.75C103.813 17.375 104.917 18.5 104.917 20.375C104.917 22.875 102.954 24.375 99.8877 24.375C96.9437 24.375 95.1037 22.875 94.8584 20.5L97.1891 20.625Z" fill="white"/>
<path d="M109.455 12.25V14.5H111.295V16.125H109.455V21.5C109.455 22.375 109.823 22.75 110.559 22.75C110.805 22.75 110.927 22.75 111.173 22.75V24.375C110.805 24.5 110.437 24.5 110.069 24.5C108.106 24.5 107.37 23.75 107.37 21.875V16.375H106.021V14.75H107.37V12.25H109.455Z" fill="white"/>
<path d="M112.277 19.5C112.277 16.5 113.995 14.5 116.816 14.5C119.515 14.5 121.355 16.375 121.355 19.5C121.355 22.5 119.637 24.5 116.816 24.5C113.995 24.375 112.277 22.5 112.277 19.5ZM119.269 19.5C119.269 17.375 118.288 16.125 116.693 16.125C115.099 16.125 114.117 17.375 114.117 19.5C114.117 21.625 115.099 22.875 116.693 22.875C118.288 22.875 119.269 21.5 119.269 19.5Z" fill="white"/>
<path d="M122.949 14.625H124.789V16.25C125.035 15.25 126.016 14.5 127.12 14.5C127.365 14.5 127.611 14.5 127.733 14.625V16.5C127.488 16.375 127.12 16.375 126.875 16.375C125.771 16.375 124.912 17.25 124.789 18.25C124.789 18.375 124.789 18.5 124.789 18.5V24.25H122.949V14.625Z" fill="white"/>
<path d="M136.81 21.5C136.32 23.375 134.602 24.625 132.762 24.5C129.941 24.5 128.224 22.625 128.224 19.625C128.224 16.625 129.941 14.625 132.64 14.625C135.216 14.625 136.933 16.5 136.933 19.375V20H130.186C130.064 21.375 131.045 22.625 132.394 22.75C132.517 22.75 132.64 22.75 132.762 22.75C133.744 22.875 134.602 22.25 134.97 21.375L136.81 21.5ZM130.186 18.5H134.97C135.093 17.25 134.112 16.125 132.762 16H132.64C131.29 16.125 130.186 17.125 130.186 18.5Z" fill="white"/>
<path d="M60.5109 38.5L60.6336 37.5C61.0016 37.625 61.3696 37.75 61.8603 37.75C62.2283 37.75 62.351 37.75 62.4736 37.5C62.8416 36.625 63.0869 35.625 62.9643 34.625C62.9643 33.625 62.5963 33.25 61.8603 33.25C61.615 33.25 61.4923 33.25 61.247 33.25C60.7563 35.125 60.0203 36.875 59.039 38.375L58.0576 37.875C59.039 36.5 59.6523 35 60.0203 33.375C59.407 33.5 58.7936 33.5 58.1803 33.75L58.0576 32.5C58.7936 32.375 59.6523 32.25 60.3883 32.125C60.511 31.375 60.6336 30.5 60.7563 29.75L61.8603 29.875C61.7376 30.625 61.615 31.25 61.4923 32H61.9829C63.4549 32 64.1909 32.75 64.1909 34.375C64.3136 35.625 64.0683 36.75 63.5776 37.875C63.3323 38.375 62.719 38.625 62.2283 38.625C61.4923 38.75 61.0016 38.625 60.5109 38.5ZM64.1909 32.125L65.0496 31.5C66.2763 32.625 66.8896 34.25 67.0123 35.875L65.9083 36C65.9083 34.625 65.2949 33.25 64.1909 32.125Z" fill="white"/>
<path d="M70.938 38.625L70.6926 37.625C70.938 37.625 71.306 37.625 71.5513 37.625C73.882 37.625 74.7406 37 74.7406 36C74.7406 35.25 74.25 34.75 73.146 34.75C71.9193 34.875 70.8153 35.375 69.9566 36.375L69.098 36C68.9753 34.5 69.2206 32.875 70.0793 31.625L71.0606 32C70.4473 32.875 70.0793 34 70.202 35C71.1833 34.375 72.1646 34 73.3913 33.875C74.986 33.875 75.8446 34.625 75.8446 36C75.8446 37.625 74.4953 38.75 71.4286 38.75C71.306 38.75 71.0606 38.625 70.938 38.625ZM69.834 30.875L70.0793 29.875C71.674 30.125 73.146 30.5 74.618 30.875L74.3726 31.875C72.9006 31.375 71.306 31.125 69.834 30.875Z" fill="white"/>
<path d="M79.1562 37.875C80.3829 37.5 81.3642 36.75 82.2229 35.875C81.6095 35.25 80.8735 34.875 80.0149 34.375L80.6282 33.625C81.3642 34 82.1002 34.5 82.8362 35C83.3269 34.125 83.8175 33.25 83.9402 32.25H80.9962C80.2602 33.375 79.5242 34.375 78.4202 35.25L77.5615 34.5C79.0335 33.25 80.1375 31.75 80.7509 30L81.8549 30.25C81.7322 30.625 81.6095 30.875 81.4869 31.25H84.3082L85.1669 31.625C84.7989 34.875 82.5909 37.625 79.6469 38.875L79.1562 37.875ZM84.0629 29.625L84.6762 29.25C85.0442 29.75 85.2895 30.125 85.5349 30.75L84.7989 31.125C84.6762 30.625 84.4309 30.125 84.0629 29.625ZM85.5349 29.5L86.1482 29.125C86.5162 29.625 86.7615 30.125 87.0069 30.625L86.2709 31C86.1482 30.5 85.7802 30 85.5349 29.5Z" fill="white"/>
<path d="M90.5639 38.75L89.9506 37.75C92.4039 37.375 94.1212 35.125 93.9986 32.5H89.0919V35H87.8652V31.625H90.8092V29.875H92.0359V31.625H94.2439L95.3479 31.875C95.2252 35.25 94.1212 37.75 90.5639 38.75Z" fill="white"/>
<path d="M97.5566 31.625L98.17 30.625C99.1513 31.125 100.133 31.625 100.991 32.375L100.255 33.375C99.5193 32.75 98.538 32.125 97.5566 31.625ZM97.802 37.5C100.623 37 103.199 35.25 104.426 32.625L105.162 33.5C103.69 36.25 101.114 38.125 98.17 38.625L97.802 37.5Z" fill="white"/>
<path d="M114.606 38H107.369V31H114.606V38ZM108.596 32.125V37H113.502V32.125H108.596Z" fill="white"/>
<path d="M125.034 34.875H116.815V33.625H125.034V34.875Z" fill="white"/>
<path d="M127.854 29.875H128.958V32.875C130.43 33.5 131.902 34.25 133.374 35.125L132.761 36.25C131.534 35.5 130.308 34.75 128.958 34.25V38.75H127.854V29.875ZM130.553 30.5L131.289 30.125C131.657 30.625 131.902 31.125 132.148 31.75L131.412 32.125C131.166 31.625 130.921 31 130.553 30.5ZM131.902 30L132.638 29.625C133.006 30.125 133.252 30.625 133.497 31.25L132.761 31.625C132.516 31.125 132.148 30.5 131.902 30Z" fill="white"/>
<path d="M46.1593 25.375C46.1593 23.25 47.2633 21.25 49.1033 20.125C47.9993 18.5 46.1593 17.5 44.1966 17.375C42.1113 17.125 40.1486 18.625 39.0446 18.625C37.9406 18.625 36.3459 17.375 34.6286 17.375C32.2979 17.5 30.2126 18.75 29.1086 20.75C26.7779 24.875 28.4953 31.125 30.8259 34.5C31.9299 36.125 33.2793 38 34.9966 38C36.7139 37.875 37.3273 36.875 39.4126 36.875C41.4979 36.875 41.9886 38 43.8286 38C45.6686 38 46.7726 36.375 47.8766 34.625C48.7353 33.5 49.3486 32.125 49.7166 30.75C47.6313 30 46.1593 27.75 46.1593 25.375Z" fill="white"/>
<path d="M42.8472 15.25C43.8285 14 44.3192 12.5 44.1965 10.875C42.7245 11 41.2525 11.75 40.2712 13C39.2898 14.125 38.7992 15.625 38.9218 17.25C40.3938 17.25 41.8658 16.5 42.8472 15.25Z" fill="white"/>
</svg>
