<svg width="134" height="134" viewBox="0 0 134 134" fill="none" xmlns="http://www.w3.org/2000/svg">
<rect width="134" height="134" rx="30" fill="#59CC46"/>
<path d="M85.0348 34.0086C78.5201 33.8575 72.152 35.9629 67 39.9712C61.8166 35.9531 55.4154 33.8479 48.8701 34.0086C32.4144 34.0086 21 45.4751 21 62.0062V84.0221C21 86.6374 22.0342 89.1457 23.8751 90.995C25.7161 92.8444 28.2129 93.8833 30.8164 93.8833C33.4199 93.8833 35.9167 92.8444 37.7576 90.995C39.5986 89.1457 40.6328 86.6374 40.6328 84.0221V60.4008C40.5881 59.2993 40.7692 58.2003 41.1649 57.172C41.5606 56.1438 42.1624 55.2081 42.933 54.4232C43.7036 53.6383 44.6266 53.0209 45.6446 52.6092C46.6627 52.1976 47.7541 52.0005 48.8512 52.0302C49.954 51.9985 51.0516 52.1934 52.0768 52.6029C53.102 53.0123 54.0332 53.6277 54.8133 54.4114C55.5934 55.1951 56.206 56.1306 56.6136 57.1605C57.0212 58.1904 57.2151 59.293 57.1836 60.4008V61.5666C57.1836 61.7195 57.1836 61.8533 57.1836 62.0062V84.0221C57.142 85.3337 57.3667 86.6401 57.8438 87.8618C58.321 89.0834 59.0406 90.1947 59.959 91.128C60.8773 92.0613 61.9752 92.797 63.1857 93.2904C64.3962 93.7839 65.6939 94.0246 67 93.998C67.3822 93.9797 67.7632 93.9414 68.1415 93.8833C69.8484 93.7431 71.4842 93.1341 72.8699 92.123C74.2556 91.1118 75.3378 89.7374 75.9984 88.15C76.5413 86.8556 76.8195 85.4648 76.8164 84.0603V62.0062C76.8164 61.8724 76.8164 61.7386 76.8164 61.6048V60.4008C76.7717 59.2993 76.9528 58.2003 77.3485 57.172C77.7442 56.1438 78.346 55.2081 79.1166 54.4232C79.8873 53.6383 80.8103 53.0209 81.8283 52.6092C82.8463 52.1976 83.9377 52.0005 85.0348 52.0302C86.1376 51.9985 87.2352 52.1934 88.2604 52.6029C89.2856 53.0123 90.2168 53.6277 90.9969 54.4114C91.777 55.1951 92.3896 56.1306 92.7972 57.1605C93.2048 58.1904 93.3988 59.293 93.3673 60.4008V84.0221C93.3673 85.3171 93.6212 86.5994 94.1145 87.7958C94.6078 88.9922 95.3309 90.0793 96.2424 90.995C97.154 91.9107 98.2361 92.6371 99.4271 93.1327C100.618 93.6283 101.895 93.8833 103.184 93.8833C104.473 93.8833 105.749 93.6283 106.94 93.1327C108.131 92.6371 109.213 91.9107 110.125 90.995C111.036 90.0793 111.759 88.9922 112.253 87.7958C112.746 86.5994 113 85.3171 113 84.0221V62.0062C113 45.4751 101.586 34.0086 85.0348 34.0086Z" fill="#362740"/>
</svg>
