<svg width="128" height="27" viewBox="0 0 128 27" fill="none" xmlns="http://www.w3.org/2000/svg">
<g clip-path="url(#clip0_1150:438)">
<path d="M49.0824 17.1663V17.2348C49.0824 18.9137 47.7375 20.0901 45.8972 20.0901H37.4031C38.0402 21.3921 39.3497 22.0432 41.3316 22.0432C42.386 22.0424 43.4307 21.8486 44.4107 21.4721C44.7533 21.3092 45.1266 21.2159 45.5078 21.198C45.8216 21.1919 46.1335 21.2465 46.4253 21.3586C46.717 21.4706 46.9827 21.6379 47.2068 21.8507C47.4309 22.0634 47.609 22.3173 47.7305 22.5974C47.852 22.8776 47.9145 23.1784 47.9145 23.4823C47.9198 23.9655 47.7784 24.4395 47.5078 24.8456C47.2373 25.2517 46.8495 25.5719 46.3926 25.7665C44.7738 26.614 42.9595 27.0501 41.1193 27.0343C35.3858 27.0343 31.1742 23.231 31.1742 18.0571C31.1492 16.8684 31.373 15.6871 31.8323 14.5844C32.2916 13.4817 32.9768 12.4805 33.8466 11.6411C34.7164 10.8017 35.7527 10.1415 36.8931 9.70039C38.0336 9.25924 39.2545 9.04625 40.4822 9.07425C45.4135 9.07425 49.0824 12.5006 49.0824 17.1663ZM37.1908 16.2411H43.3136C43.2962 15.8842 43.206 15.5342 43.048 15.2114C42.8899 14.8885 42.6673 14.5992 42.393 14.3602C42.1187 14.1211 41.7982 13.9372 41.4499 13.819C41.1017 13.7007 40.7327 13.6505 40.3643 13.6713C38.8188 13.6713 37.6509 14.665 37.1908 16.2411Z" fill="#362740"/>
<path d="M102.14 18.0229C102.14 23.0254 97.8935 27 92.4785 27C87.0636 27 82.852 23.0597 82.852 18.0229C82.852 12.986 87.0636 9.07425 92.4785 9.07425C97.8935 9.07425 102.14 13.0203 102.14 18.0229ZM89.0809 18.0229C89.0809 20.1472 90.4612 21.5863 92.5139 21.5863C94.5666 21.5863 95.9115 20.0787 95.9115 18.0229C95.9115 15.967 94.4605 14.4594 92.5139 14.4594C90.5674 14.4594 89.0632 15.927 89.0632 18.0229H89.0809Z" fill="#362740"/>
<path d="M112.463 3.39212C112.488 4.09062 112.296 4.78036 111.914 5.37307C111.531 5.96578 110.975 6.43451 110.316 6.71929C109.656 7.00406 108.924 7.09193 108.213 6.97165C107.502 6.85136 106.844 6.5284 106.324 6.04407C105.803 5.55975 105.444 4.9361 105.291 4.25292C105.139 3.56974 105.201 2.85811 105.469 2.20907C105.737 1.56004 106.198 1.00313 106.795 0.609598C107.391 0.216064 108.096 0.00380712 108.818 -9.40356e-06C109.288 -0.0137063 109.757 0.0636642 110.196 0.227568C110.636 0.391472 111.037 0.63861 111.377 0.954515C111.716 1.27042 111.987 1.64874 112.174 2.06731C112.36 2.48587 112.459 2.93627 112.463 3.39212ZM105.809 24.019V12.0266C105.809 11.2451 106.13 10.4956 106.701 9.94301C107.272 9.3904 108.046 9.07994 108.853 9.07994C109.66 9.07994 110.434 9.3904 111.005 9.94301C111.576 10.4956 111.897 11.2451 111.897 12.0266V24.019C111.897 24.8005 111.576 25.55 111.005 26.1027C110.434 26.6553 109.66 26.9657 108.853 26.9657C108.046 26.9657 107.272 26.6553 106.701 26.1027C106.13 25.55 105.809 24.8005 105.809 24.019Z" fill="#362740"/>
<path d="M127.994 11.8211C127.994 13.3972 126.932 14.4594 125.198 14.6764C123.004 14.9848 121.942 16.2868 121.942 18.7538V23.9962C121.942 24.7777 121.621 25.5272 121.051 26.0798C120.48 26.6324 119.706 26.9429 118.898 26.9429C118.091 26.9429 117.317 26.6324 116.746 26.0798C116.175 25.5272 115.855 24.7777 115.855 23.9962V12.0038C115.837 11.6184 115.901 11.2336 116.041 10.8725C116.181 10.5114 116.396 10.1817 116.671 9.90306C116.947 9.62447 117.278 9.40283 117.645 9.25155C118.011 9.10026 118.406 9.02246 118.804 9.02284C119.431 9.01096 120.044 9.19912 120.549 9.55829C121.055 9.91746 121.424 10.4277 121.6 11.0101C122.037 10.4524 122.598 9.99666 123.241 9.67645C123.884 9.35624 124.593 9.17972 125.316 9.15989C125.678 9.14364 126.04 9.2019 126.377 9.33083C126.715 9.45976 127.02 9.65642 127.273 9.90787C127.526 10.1593 127.721 10.4598 127.845 10.7896C127.97 11.1194 128.02 11.4709 127.994 11.8211Z" fill="#362740"/>
<path d="M19.8488 9.07424C17.8289 9.0291 15.8544 9.65822 14.2569 10.856C12.6497 9.65532 10.665 9.02624 8.63555 9.07424C3.53325 9.07424 -0.00592041 12.5006 -0.00592041 17.4404V24.019C-0.00592041 24.8006 0.314749 25.5501 0.885551 26.1027C1.45635 26.6553 2.23053 26.9657 3.03777 26.9657C3.845 26.9657 4.61918 26.6553 5.18999 26.1027C5.76079 25.5501 6.08146 24.8006 6.08146 24.019V16.9607C6.06759 16.6315 6.12375 16.3031 6.24644 15.9958C6.36913 15.6886 6.55572 15.409 6.79466 15.1745C7.03361 14.9399 7.31978 14.7554 7.63544 14.6324C7.9511 14.5094 8.28952 14.4505 8.62967 14.4594C8.9716 14.4499 9.31193 14.5082 9.62981 14.6305C9.94769 14.7529 10.2364 14.9368 10.4783 15.1709C10.7202 15.4051 10.9101 15.6846 11.0365 15.9924C11.1629 16.3001 11.223 16.6296 11.2132 16.9607V17.309C11.2132 17.3547 11.2132 17.3947 11.2132 17.4404V24.019C11.2004 24.411 11.27 24.8014 11.418 25.1664C11.5659 25.5315 11.789 25.8635 12.0738 26.1424C12.3585 26.4213 12.6989 26.6411 13.0743 26.7886C13.4496 26.936 13.852 27.008 14.2569 27C14.3754 26.9945 14.4936 26.9831 14.6109 26.9657C15.1401 26.9238 15.6473 26.7419 16.077 26.4397C16.5066 26.1376 16.8422 25.7269 17.047 25.2525C17.2153 24.8658 17.3016 24.4502 17.3006 24.0305V17.4404C17.3006 17.4004 17.3006 17.3604 17.3006 17.3204V16.9607C17.2868 16.6315 17.3429 16.3031 17.4656 15.9958C17.5883 15.6886 17.7749 15.409 18.0138 15.1745C18.2528 14.9399 18.539 14.7554 18.8546 14.6324C19.1703 14.5094 19.5087 14.4505 19.8488 14.4594C20.1908 14.4499 20.5311 14.5082 20.849 14.6305C21.1669 14.7529 21.4556 14.9368 21.6975 15.1709C21.9393 15.4051 22.1293 15.6846 22.2557 15.9924C22.3821 16.3001 22.4422 16.6296 22.4324 16.9607V24.019C22.4324 24.406 22.5111 24.7892 22.6641 25.1467C22.8171 25.5042 23.0413 25.829 23.3239 26.1027C23.6065 26.3763 23.9421 26.5934 24.3113 26.7414C24.6806 26.8895 25.0764 26.9657 25.4761 26.9657C25.8758 26.9657 26.2716 26.8895 26.6409 26.7414C27.0102 26.5934 27.3457 26.3763 27.6283 26.1027C27.9109 25.829 28.1352 25.5042 28.2881 25.1467C28.4411 24.7892 28.5198 24.406 28.5198 24.019V17.4404C28.5198 12.5006 24.9806 9.07424 19.8488 9.07424Z" fill="#362740"/>
<path d="M71.5915 9.07424C69.5716 9.0291 67.5971 9.65822 65.9996 10.856C64.3924 9.65532 62.4077 9.02624 60.3782 9.07424C55.2818 9.07424 51.7427 12.5006 51.7427 17.4689V24.0476C51.7427 24.4346 51.8214 24.8177 51.9744 25.1752C52.1273 25.5328 52.3515 25.8576 52.6341 26.1312C52.9168 26.4049 53.2523 26.6219 53.6216 26.77C53.9909 26.9181 54.3867 26.9943 54.7864 26.9943C55.1861 26.9943 55.5819 26.9181 55.9511 26.77C56.3204 26.6219 56.6559 26.4049 56.9386 26.1312C57.2212 25.8576 57.4454 25.5328 57.5984 25.1752C57.7513 24.8177 57.83 24.4346 57.83 24.0476V16.9607C57.8162 16.6315 57.8723 16.3031 57.995 15.9958C58.1177 15.6886 58.3043 15.409 58.5433 15.1745C58.7822 14.9399 59.0684 14.7554 59.384 14.6324C59.6997 14.5094 60.0381 14.4505 60.3782 14.4594C60.7202 14.4499 61.0605 14.5082 61.3784 14.6305C61.6963 14.7529 61.985 14.9368 62.2269 15.1709C62.4688 15.4051 62.6587 15.6846 62.7851 15.9924C62.9115 16.3001 62.9716 16.6296 62.9618 16.9607V17.309C62.9618 17.3547 62.9618 17.3947 62.9618 17.4404V24.019C62.949 24.411 63.0186 24.8014 63.1665 25.1664C63.3145 25.5315 63.5376 25.8635 63.8224 26.1424C64.1071 26.4213 64.4475 26.6411 64.8228 26.7886C65.1982 26.936 65.6006 27.008 66.0055 27C66.126 26.9945 66.2461 26.9831 66.3653 26.9657C66.8932 26.9216 67.3986 26.7387 67.8269 26.4368C68.2552 26.1348 68.5901 25.7253 68.7956 25.2525C68.9633 24.8636 69.0495 24.4462 69.0492 24.0247V17.4404C69.0492 17.4004 69.0492 17.3604 69.0492 17.3204V16.9607C69.0354 16.6315 69.0915 16.3031 69.2142 15.9958C69.3369 15.6886 69.5235 15.409 69.7624 15.1745C70.0014 14.9399 70.2875 14.7554 70.6032 14.6324C70.9189 14.5094 71.2573 14.4505 71.5974 14.4594C71.9394 14.4499 72.2797 14.5082 72.5976 14.6305C72.9154 14.7529 73.2042 14.9368 73.4461 15.1709C73.6879 15.4051 73.8779 15.6846 74.0043 15.9924C74.1307 16.3001 74.1908 16.6296 74.181 16.9607V24.019C74.181 24.8006 74.5017 25.5501 75.0725 26.1027C75.6433 26.6553 76.4175 26.9657 77.2247 26.9657C78.0319 26.9657 78.8061 26.6553 79.3769 26.1027C79.9477 25.5501 80.2684 24.8006 80.2684 24.019V17.4404C80.2625 12.5006 76.7233 9.07424 71.5915 9.07424Z" fill="#362740"/>
</g>
<defs>
<clipPath id="clip0_1150:438">
<rect width="128" height="27" fill="white"/>
</clipPath>
</defs>
</svg>
