<svg width="128" height="27" viewBox="0 0 128 27" fill="none" xmlns="http://www.w3.org/2000/svg">
<g clip-path="url(#clip0_1202_443)">
<path d="M49.0824 17.1662V17.2347C49.0824 18.9137 47.7375 20.0901 45.8972 20.0901H37.4031C38.0402 21.3921 39.3497 22.0431 41.3316 22.0431C42.386 22.0424 43.4307 21.8486 44.4107 21.4721C44.7533 21.3092 45.1266 21.2159 45.5078 21.1979C45.8216 21.1919 46.1335 21.2465 46.4253 21.3585C46.717 21.4706 46.9827 21.6379 47.2068 21.8506C47.4309 22.0633 47.609 22.3172 47.7305 22.5974C47.852 22.8775 47.9145 23.1784 47.9145 23.4822C47.9198 23.9654 47.7784 24.4395 47.5078 24.8456C47.2373 25.2516 46.8495 25.5719 46.3926 25.7665C44.7738 26.6139 42.9595 27.0501 41.1193 27.0343C35.3858 27.0343 31.1742 23.2309 31.1742 18.0571C31.1492 16.8684 31.373 15.6871 31.8323 14.5844C32.2916 13.4817 32.9768 12.4805 33.8466 11.6411C34.7164 10.8017 35.7527 10.1415 36.8931 9.70036C38.0336 9.25921 39.2545 9.04622 40.4822 9.07422C45.4135 9.07422 49.0824 12.5006 49.0824 17.1662ZM37.1908 16.2411H43.3136C43.2962 15.8842 43.206 15.5342 43.048 15.2113C42.8899 14.8884 42.6673 14.5991 42.393 14.3601C42.1187 14.1211 41.7982 13.9372 41.4499 13.8189C41.1017 13.7007 40.7327 13.6505 40.3643 13.6713C38.8188 13.6713 37.6509 14.665 37.1908 16.2411Z" fill="#E3C95D"/>
<path d="M102.14 18.0228C102.14 23.0254 97.8935 27 92.4785 27C87.0636 27 82.852 23.0596 82.852 18.0228C82.852 12.986 87.0636 9.07422 92.4785 9.07422C97.8935 9.07422 102.14 13.0203 102.14 18.0228ZM89.0809 18.0228C89.0809 20.1472 90.4612 21.5863 92.5139 21.5863C94.5666 21.5863 95.9115 20.0787 95.9115 18.0228C95.9115 15.967 94.4605 14.4594 92.5139 14.4594C90.5674 14.4594 89.0632 15.927 89.0632 18.0228H89.0809Z" fill="#E3C95D"/>
<path d="M112.463 3.39222C112.488 4.09072 112.297 4.78045 111.914 5.37316C111.531 5.96587 110.975 6.4346 110.316 6.71938C109.656 7.00415 108.924 7.09202 108.213 6.97174C107.502 6.85145 106.844 6.52849 106.324 6.04417C105.803 5.55984 105.444 4.93619 105.292 4.25301C105.139 3.56984 105.201 2.8582 105.469 2.20916C105.737 1.56013 106.198 1.00322 106.795 0.609689C107.392 0.216156 108.096 0.00389868 108.818 8.21492e-05C109.288 -0.0136148 109.757 0.0637558 110.197 0.22766C110.636 0.391564 111.037 0.638701 111.377 0.954606C111.716 1.27051 111.987 1.64883 112.174 2.0674C112.36 2.48596 112.459 2.93636 112.463 3.39222ZM105.809 24.0191V12.0267C105.809 11.2452 106.13 10.4957 106.701 9.9431C107.272 9.39049 108.046 9.08003 108.853 9.08003C109.66 9.08003 110.435 9.39049 111.005 9.9431C111.576 10.4957 111.897 11.2452 111.897 12.0267V24.0191C111.897 24.8006 111.576 25.5501 111.005 26.1027C110.435 26.6554 109.66 26.9658 108.853 26.9658C108.046 26.9658 107.272 26.6554 106.701 26.1027C106.13 25.5501 105.809 24.8006 105.809 24.0191Z" fill="#E3C95D"/>
<path d="M127.994 11.8212C127.994 13.3974 126.932 14.4595 125.198 14.6765C123.004 14.9849 121.942 16.2869 121.942 18.754V23.9963C121.942 24.7779 121.621 25.5274 121.051 26.08C120.48 26.6326 119.706 26.9431 118.898 26.9431C118.091 26.9431 117.317 26.6326 116.746 26.08C116.175 25.5274 115.855 24.7779 115.855 23.9963V12.004C115.837 11.6186 115.901 11.2337 116.041 10.8726C116.181 10.5116 116.396 10.1818 116.671 9.90321C116.947 9.62462 117.278 9.40299 117.645 9.2517C118.011 9.10042 118.406 9.02262 118.804 9.02299C119.431 9.01111 120.044 9.19928 120.55 9.55844C121.055 9.91761 121.424 10.4278 121.6 11.0103C122.037 10.4526 122.598 9.99681 123.241 9.6766C123.884 9.3564 124.593 9.17988 125.316 9.16004C125.678 9.14379 126.04 9.20205 126.377 9.33098C126.715 9.45991 127.02 9.65657 127.273 9.90802C127.526 10.1595 127.721 10.46 127.845 10.7898C127.97 11.1195 128.02 11.4711 127.994 11.8212Z" fill="#E3C95D"/>
<path d="M19.8488 9.07433C17.8289 9.02919 15.8544 9.65831 14.2569 10.8561C12.6497 9.65541 10.665 9.02633 8.63555 9.07433C3.53325 9.07433 -0.00592041 12.5007 -0.00592041 17.4404V24.0191C-0.00592041 24.8007 0.314749 25.5501 0.885551 26.1028C1.45635 26.6554 2.23053 26.9658 3.03777 26.9658C3.845 26.9658 4.61918 26.6554 5.18999 26.1028C5.76079 25.5501 6.08146 24.8007 6.08146 24.0191V16.9608C6.06759 16.6316 6.12375 16.3032 6.24644 15.9959C6.36913 15.6887 6.55572 15.4091 6.79466 15.1745C7.03361 14.94 7.31978 14.7555 7.63544 14.6325C7.9511 14.5095 8.28952 14.4506 8.62967 14.4595C8.9716 14.45 9.31193 14.5083 9.62981 14.6306C9.94769 14.753 10.2364 14.9368 10.4783 15.171C10.7202 15.4052 10.9101 15.6847 11.0365 15.9925C11.1629 16.3002 11.223 16.6297 11.2132 16.9608V17.3091C11.2132 17.3548 11.2132 17.3948 11.2132 17.4404V24.0191C11.2004 24.4111 11.27 24.8015 11.418 25.1665C11.5659 25.5315 11.789 25.8636 12.0738 26.1425C12.3585 26.4214 12.6989 26.6412 13.0743 26.7887C13.4496 26.9361 13.852 27.0081 14.2569 27.0001C14.3754 26.9946 14.4936 26.9832 14.6109 26.9658C15.1401 26.9239 15.6473 26.742 16.077 26.4398C16.5066 26.1377 16.8422 25.727 17.047 25.2526C17.2153 24.8659 17.3016 24.4503 17.3006 24.0306V17.4404C17.3006 17.4005 17.3006 17.3605 17.3006 17.3205V16.9608C17.2868 16.6316 17.3429 16.3032 17.4656 15.9959C17.5883 15.6887 17.7749 15.4091 18.0138 15.1745C18.2528 14.94 18.539 14.7555 18.8546 14.6325C19.1703 14.5095 19.5087 14.4506 19.8488 14.4595C20.1908 14.45 20.5311 14.5083 20.849 14.6306C21.1669 14.753 21.4556 14.9368 21.6975 15.171C21.9393 15.4052 22.1293 15.6847 22.2557 15.9925C22.3821 16.3002 22.4422 16.6297 22.4324 16.9608V24.0191C22.4324 24.4061 22.5111 24.7893 22.6641 25.1468C22.8171 25.5043 23.0413 25.8291 23.3239 26.1028C23.6065 26.3764 23.9421 26.5934 24.3113 26.7415C24.6806 26.8896 25.0764 26.9658 25.4761 26.9658C25.8758 26.9658 26.2716 26.8896 26.6409 26.7415C27.0102 26.5934 27.3457 26.3764 27.6283 26.1028C27.9109 25.8291 28.1352 25.5043 28.2881 25.1468C28.4411 24.7893 28.5198 24.4061 28.5198 24.0191V17.4404C28.5198 12.5007 24.9806 9.07433 19.8488 9.07433Z" fill="#E3C95D"/>
<path d="M71.5915 9.07433C69.5716 9.02919 67.5971 9.65831 65.9996 10.8561C64.3924 9.65541 62.4077 9.02633 60.3782 9.07433C55.2818 9.07433 51.7427 12.5007 51.7427 17.469V24.0477C51.7427 24.4346 51.8214 24.8178 51.9744 25.1753C52.1273 25.5328 52.3515 25.8577 52.6341 26.1313C52.9168 26.4049 53.2523 26.622 53.6216 26.7701C53.9909 26.9182 54.3867 26.9944 54.7864 26.9944C55.1861 26.9944 55.5819 26.9182 55.9511 26.7701C56.3204 26.622 56.6559 26.4049 56.9386 26.1313C57.2212 25.8577 57.4454 25.5328 57.5984 25.1753C57.7513 24.8178 57.83 24.4346 57.83 24.0477V16.9608C57.8162 16.6316 57.8723 16.3032 57.995 15.9959C58.1177 15.6887 58.3043 15.4091 58.5433 15.1745C58.7822 14.94 59.0684 14.7555 59.384 14.6325C59.6997 14.5095 60.0381 14.4506 60.3782 14.4595C60.7202 14.45 61.0605 14.5083 61.3784 14.6306C61.6963 14.753 61.985 14.9368 62.2269 15.171C62.4688 15.4052 62.6587 15.6847 62.7851 15.9925C62.9115 16.3002 62.9716 16.6297 62.9618 16.9608V17.3091C62.9618 17.3548 62.9618 17.3948 62.9618 17.4404V24.0191C62.949 24.4111 63.0186 24.8015 63.1665 25.1665C63.3145 25.5315 63.5376 25.8636 63.8224 26.1425C64.1071 26.4214 64.4475 26.6412 64.8228 26.7887C65.1982 26.9361 65.6006 27.0081 66.0055 27.0001C66.126 26.9946 66.2461 26.9832 66.3653 26.9658C66.8932 26.9217 67.3986 26.7388 67.8269 26.4368C68.2552 26.1349 68.5901 25.7254 68.7956 25.2526C68.9633 24.8637 69.0495 24.4463 69.0492 24.0248V17.4404C69.0492 17.4005 69.0492 17.3605 69.0492 17.3205V16.9608C69.0354 16.6316 69.0915 16.3032 69.2142 15.9959C69.3369 15.6887 69.5235 15.4091 69.7624 15.1745C70.0014 14.94 70.2875 14.7555 70.6032 14.6325C70.9189 14.5095 71.2573 14.4506 71.5974 14.4595C71.9394 14.45 72.2797 14.5083 72.5976 14.6306C72.9154 14.753 73.2042 14.9368 73.4461 15.171C73.6879 15.4052 73.8779 15.6847 74.0043 15.9925C74.1307 16.3002 74.1908 16.6297 74.181 16.9608V24.0191C74.181 24.8007 74.5017 25.5501 75.0725 26.1028C75.6433 26.6554 76.4175 26.9658 77.2247 26.9658C78.0319 26.9658 78.8061 26.6554 79.3769 26.1028C79.9477 25.5501 80.2684 24.8007 80.2684 24.0191V17.4404C80.2625 12.5007 76.7233 9.07433 71.5915 9.07433Z" fill="#E3C95D"/>
</g>
<defs>
<clipPath id="clip0_1202_443">
<rect width="128" height="27" fill="white"/>
</clipPath>
</defs>
</svg>
